<svg width="20" height="20" viewBox="0 0 20 20" fill="none" xmlns="http://www.w3.org/2000/svg">
<path d="M9.20654 9.99996C11.3981 9.99996 13.1748 8.22335 13.1748 6.03174C13.1748 8.22335 14.9514 9.99996 17.1431 9.99996C14.9514 9.99996 13.1748 11.7766 13.1748 13.9682C13.1748 11.7766 11.3981 9.99996 9.20654 9.99996Z" fill="#A0FF00"/>
<path d="M9.20654 9.99996C11.3981 9.99996 13.1748 8.22335 13.1748 6.03174C13.1748 8.22335 14.9514 9.99996 17.1431 9.99996C14.9514 9.99996 13.1748 11.7766 13.1748 13.9682C13.1748 11.7766 11.3981 9.99996 9.20654 9.99996Z" fill="url(#paint0_linear_1_1852)" fill-opacity="0.56"/>
<path d="M9.20654 9.99996C11.3981 9.99996 13.1748 8.22335 13.1748 6.03174C13.1748 8.22335 14.9514 9.99996 17.1431 9.99996C14.9514 9.99996 13.1748 11.7766 13.1748 13.9682C13.1748 11.7766 11.3981 9.99996 9.20654 9.99996Z" stroke="#A0FF00" stroke-width="1.19048" stroke-linecap="round" stroke-linejoin="round"/>
<path d="M9.20654 9.99996C11.3981 9.99996 13.1748 8.22335 13.1748 6.03174C13.1748 8.22335 14.9514 9.99996 17.1431 9.99996C14.9514 9.99996 13.1748 11.7766 13.1748 13.9682C13.1748 11.7766 11.3981 9.99996 9.20654 9.99996Z" stroke="url(#paint1_linear_1_1852)" stroke-opacity="0.56" stroke-width="1.19048" stroke-linecap="round" stroke-linejoin="round"/>
<path d="M6.82544 5.63481C7.48292 5.63481 8.01592 5.10181 8.01592 4.44434C8.01592 5.10181 8.54891 5.63481 9.20639 5.63481C8.54891 5.63481 8.01592 6.1678 8.01592 6.82529C8.01592 6.1678 7.48292 5.63481 6.82544 5.63481Z" stroke="#A0FF00" stroke-width="1.19048" stroke-linecap="round" stroke-linejoin="round"/>
<path d="M6.82544 5.63481C7.48292 5.63481 8.01592 5.10181 8.01592 4.44434C8.01592 5.10181 8.54891 5.63481 9.20639 5.63481C8.54891 5.63481 8.01592 6.1678 8.01592 6.82529C8.01592 6.1678 7.48292 5.63481 6.82544 5.63481Z" stroke="url(#paint2_linear_1_1852)" stroke-opacity="0.56" stroke-width="1.19048" stroke-linecap="round" stroke-linejoin="round"/>
<path d="M2.85718 9.20625C3.2955 9.20625 3.65083 8.85092 3.65083 8.4126C3.65083 8.85092 4.00616 9.20625 4.44448 9.20625C4.00616 9.20625 3.65083 9.56158 3.65083 9.99986C3.65083 9.56158 3.2955 9.20625 2.85718 9.20625Z" stroke="#A0FF00" stroke-width="1.19048" stroke-linecap="round" stroke-linejoin="round"/>
<path d="M2.85718 9.20625C3.2955 9.20625 3.65083 8.85092 3.65083 8.4126C3.65083 8.85092 4.00616 9.20625 4.44448 9.20625C4.00616 9.20625 3.65083 9.56158 3.65083 9.99986C3.65083 9.56158 3.2955 9.20625 2.85718 9.20625Z" stroke="url(#paint3_linear_1_1852)" stroke-opacity="0.56" stroke-width="1.19048" stroke-linecap="round" stroke-linejoin="round"/>
<path d="M4.44458 13.9681C5.75954 13.9681 6.82553 12.9021 6.82553 11.5872C6.82553 12.9021 7.89152 13.9681 9.20648 13.9681C7.89152 13.9681 6.82553 15.0341 6.82553 16.3491C6.82553 15.0341 5.75954 13.9681 4.44458 13.9681Z" fill="#A0FF00"/>
<path d="M4.44458 13.9681C5.75954 13.9681 6.82553 12.9021 6.82553 11.5872C6.82553 12.9021 7.89152 13.9681 9.20648 13.9681C7.89152 13.9681 6.82553 15.0341 6.82553 16.3491C6.82553 15.0341 5.75954 13.9681 4.44458 13.9681Z" fill="url(#paint4_linear_1_1852)" fill-opacity="0.56"/>
<path d="M4.44458 13.9681C5.75954 13.9681 6.82553 12.9021 6.82553 11.5872C6.82553 12.9021 7.89152 13.9681 9.20648 13.9681C7.89152 13.9681 6.82553 15.0341 6.82553 16.3491C6.82553 15.0341 5.75954 13.9681 4.44458 13.9681Z" stroke="#A0FF00" stroke-width="1.19048" stroke-linecap="round" stroke-linejoin="round"/>
<path d="M4.44458 13.9681C5.75954 13.9681 6.82553 12.9021 6.82553 11.5872C6.82553 12.9021 7.89152 13.9681 9.20648 13.9681C7.89152 13.9681 6.82553 15.0341 6.82553 16.3491C6.82553 15.0341 5.75954 13.9681 4.44458 13.9681Z" stroke="url(#paint5_linear_1_1852)" stroke-opacity="0.56" stroke-width="1.19048" stroke-linecap="round" stroke-linejoin="round"/>
<defs>
<linearGradient id="paint0_linear_1_1852" x1="13.1748" y1="6.03174" x2="13.1748" y2="12.088" gradientUnits="userSpaceOnUse">
<stop stop-color="white"/>
<stop offset="1" stop-color="white" stop-opacity="0"/>
</linearGradient>
<linearGradient id="paint1_linear_1_1852" x1="13.1748" y1="6.03174" x2="13.1748" y2="12.088" gradientUnits="userSpaceOnUse">
<stop stop-color="white"/>
<stop offset="1" stop-color="white" stop-opacity="0"/>
</linearGradient>
<linearGradient id="paint2_linear_1_1852" x1="8.01592" y1="4.44434" x2="8.01592" y2="6.26119" gradientUnits="userSpaceOnUse">
<stop stop-color="white"/>
<stop offset="1" stop-color="white" stop-opacity="0"/>
</linearGradient>
<linearGradient id="paint3_linear_1_1852" x1="3.65083" y1="8.4126" x2="3.65083" y2="9.62385" gradientUnits="userSpaceOnUse">
<stop stop-color="white"/>
<stop offset="1" stop-color="white" stop-opacity="0"/>
</linearGradient>
<linearGradient id="paint4_linear_1_1852" x1="6.82553" y1="11.5872" x2="6.82553" y2="15.2209" gradientUnits="userSpaceOnUse">
<stop stop-color="white"/>
<stop offset="1" stop-color="white" stop-opacity="0"/>
</linearGradient>
<linearGradient id="paint5_linear_1_1852" x1="6.82553" y1="11.5872" x2="6.82553" y2="15.2209" gradientUnits="userSpaceOnUse">
<stop stop-color="white"/>
<stop offset="1" stop-color="white" stop-opacity="0"/>
</linearGradient>
</defs>
</svg>
