<svg xmlns="http://www.w3.org/2000/svg" width="54" height="54" viewBox="0 0 54 54">
  <g id="insta" transform="translate(0 0)">
    <g id="Group_1766" data-name="Group 1766" transform="translate(0 0)">
      <circle id="Ellipse_49" data-name="Ellipse 49" cx="27" cy="27" r="27" fill="#a0ff00"/>
    </g>
    <g id="tik-tok" transform="translate(-13.46 16.324)">
      <path id="Path_9952" data-name="Path 9952" d="M49.488,5.541a5.183,5.183,0,0,1-3.132-1.047A5.185,5.185,0,0,1,44.285.39H40.926V9.569l0,5.028a3.045,3.045,0,1,1-2.089-2.885V8.3a6.61,6.61,0,0,0-.969-.072,6.441,6.441,0,0,0-4.84,2.165,6.312,6.312,0,0,0,.285,8.7,6.553,6.553,0,0,0,.607.53,6.442,6.442,0,0,0,3.948,1.335,6.61,6.61,0,0,0,.969-.071A6.42,6.42,0,0,0,42.42,19.1a6.289,6.289,0,0,0,1.887-4.475l-.017-7.508A8.512,8.512,0,0,0,49.5,8.885V5.54h-.01Z" fill="#2c4109"/>
    </g>
  </g>
</svg>
