<svg xmlns="http://www.w3.org/2000/svg" width="54" height="54" viewBox="0 0 54 54">
  <g id="insta" transform="translate(0 0)">
    <g id="Group_1766" data-name="Group 1766" transform="translate(0 0)">
      <circle id="Ellipse_49" data-name="Ellipse 49" cx="27" cy="27" r="27" fill="#a0ff00"/>
    </g>
    <g id="_x33_2.Reddit" transform="translate(4.887 1.864)">
      <path id="Icon_69_" d="M34.216,25.324a2.654,2.654,0,0,0-4.479-1.846,12.881,12.881,0,0,0-7.021-2.239L23.9,15.58l3.9.787a1.811,1.811,0,1,0,1.6-2,1.78,1.78,0,0,0-1.362.878l-4.448-.878a.558.558,0,0,0-.666.424L21.6,21.118a13.008,13.008,0,0,0-7.112,2.239,2.655,2.655,0,0,0-3.631,3.874,3.041,3.041,0,0,0,.726.484,3.418,3.418,0,0,0,0,.787c0,4.085,4.751,7.414,10.622,7.414s10.622-3.3,10.622-7.414a3.418,3.418,0,0,0,0-.787A2.6,2.6,0,0,0,34.216,25.324ZM15.968,27.17a1.816,1.816,0,1,1,1.816,1.816A1.821,1.821,0,0,1,15.968,27.17ZM26.56,32.194a6.865,6.865,0,0,1-4.479,1.392A6.983,6.983,0,0,1,17.6,32.194a.486.486,0,0,1,.061-.7.5.5,0,0,1,.635,0,6.022,6.022,0,0,0,3.783,1.15,5.954,5.954,0,0,0,3.813-1.12.514.514,0,0,1,.726.726v-.061Zm-.3-3.117a1.816,1.816,0,1,1,1.816-1.816,1.8,1.8,0,0,1-1.755,1.876h-.091Z" transform="translate(0 0)" fill="#2c4109"/>
    </g>
  </g>
</svg>
