<svg width="180" height="28" viewBox="0 0 180 28" fill="none" xmlns="http://www.w3.org/2000/svg">
<path d="M4.27865 22.9751V15.1492H16.1871V10.8703H9.49795V0.0298214L5.22124 2.49838V10.8703H4.27865V3.04308L0 5.51414V20.5053L4.27865 22.9751Z" fill="#A0FF00"/>
<path d="M9.4979 21.0246V15.3801H5.22119V23.5198L12.984 28L20.6966 23.5478V15.1494V15.1493H21.6881V22.9752L25.9667 20.5054V5.51419L21.6881 3.04317V10.8704H20.6966V10.8701V2.47042L16.418 -1.90735e-06V21.1282L13.0475 23.0743L9.4979 21.0246Z" fill="#A0FF00"/>
<path d="M28.0674 8.90325V7.34672H28.8563C28.9195 7.34672 28.9884 7.365 29.063 7.40156C29.1375 7.43671 29.2007 7.49155 29.2528 7.56607C29.3062 7.63918 29.3329 7.73199 29.3329 7.84447C29.3329 7.95836 29.3055 8.05538 29.2507 8.13553C29.1958 8.21427 29.129 8.27403 29.0503 8.31481C28.973 8.35558 28.8998 8.37597 28.8309 8.37597H28.2615V8.12288H28.7255C28.7719 8.12288 28.8218 8.09968 28.8752 8.05328C28.9301 8.00687 28.9575 7.93727 28.9575 7.84447C28.9575 7.74886 28.9301 7.68418 28.8752 7.65043C28.8218 7.61669 28.7747 7.59981 28.7339 7.59981H28.4091V8.90325H28.0674ZM29.0081 8.16928L29.3962 8.90325H29.0208L28.6411 8.16928H29.0081ZM28.658 9.83126C28.4246 9.83126 28.2059 9.78768 28.0021 9.7005C27.7982 9.61332 27.6189 9.4924 27.4642 9.33773C27.3096 9.18306 27.1886 9.00379 27.1015 8.7999C27.0143 8.59602 26.9707 8.37738 26.9707 8.14397C26.9707 7.91056 27.0143 7.69191 27.1015 7.48803C27.1886 7.28415 27.3096 7.10487 27.4642 6.95021C27.6189 6.79554 27.7982 6.67461 28.0021 6.58744C28.2059 6.50026 28.4246 6.45667 28.658 6.45667C28.8914 6.45667 29.1101 6.50026 29.3139 6.58744C29.5178 6.67461 29.6971 6.79554 29.8518 6.95021C30.0064 7.10487 30.1274 7.28415 30.2145 7.48803C30.3017 7.69191 30.3453 7.91056 30.3453 8.14397C30.3453 8.37738 30.3017 8.59602 30.2145 8.7999C30.1274 9.00379 30.0064 9.18306 29.8518 9.33773C29.6971 9.4924 29.5178 9.61332 29.3139 9.7005C29.1101 9.78768 28.8914 9.83126 28.658 9.83126ZM28.658 9.42631C28.8942 9.42631 29.1094 9.36866 29.3034 9.25336C29.4974 9.13807 29.6521 8.9834 29.7674 8.78936C29.8827 8.59532 29.9403 8.38019 29.9403 8.14397C29.9403 7.90775 29.8827 7.69262 29.7674 7.49858C29.6521 7.30454 29.4974 7.14987 29.3034 7.03457C29.1094 6.91927 28.8942 6.86162 28.658 6.86162C28.4218 6.86162 28.2067 6.91927 28.0126 7.03457C27.8186 7.14987 27.6639 7.30454 27.5486 7.49858C27.4333 7.69262 27.3757 7.90775 27.3757 8.14397C27.3757 8.38019 27.4333 8.59532 27.5486 8.78936C27.6639 8.9834 27.8186 9.13807 28.0126 9.25336C28.2067 9.36866 28.4218 9.42631 28.658 9.42631Z" fill="#A0FF00"/>
<path d="M43.9291 22V5.82576H46.8591V12.673H54.3539V5.82576H57.2918V22H54.3539V15.1291H46.8591V22H43.9291ZM63.8428 22.2448C63.0741 22.2448 62.3817 22.1079 61.7657 21.8342C61.155 21.5551 60.6706 21.1444 60.3126 20.6021C59.9598 20.0598 59.7834 19.3912 59.7834 18.5961C59.7834 17.9117 59.9098 17.3457 60.1625 16.8982C60.4152 16.4506 60.7601 16.0926 61.1971 15.8241C61.6341 15.5556 62.1264 15.3529 62.674 15.216C63.2268 15.0738 63.798 14.9712 64.3877 14.908C65.0985 14.8343 65.675 14.7684 66.1173 14.7105C66.5596 14.6474 66.8807 14.5526 67.0808 14.4262C67.2861 14.2946 67.3888 14.0919 67.3888 13.8181V13.7707C67.3888 13.1758 67.2124 12.7151 66.8597 12.3886C66.5069 12.0622 65.9988 11.899 65.3354 11.899C64.6352 11.899 64.0797 12.0517 63.6691 12.3571C63.2636 12.6624 62.9899 13.0231 62.8477 13.439L60.1783 13.0599C60.3889 12.3228 60.7364 11.7068 61.2208 11.2119C61.7052 10.7117 62.2975 10.3379 62.9978 10.0904C63.698 9.83773 64.472 9.71137 65.3196 9.71137C65.9041 9.71137 66.4859 9.77981 67.065 9.9167C67.6442 10.0536 68.1733 10.28 68.6524 10.5959C69.1315 10.9065 69.5159 11.3304 69.8055 11.8674C70.1003 12.4044 70.2477 13.0757 70.2477 13.8813V22H67.4994V20.3336H67.4046C67.2309 20.6706 66.986 20.9865 66.6701 21.2813C66.3595 21.5709 65.9672 21.8052 65.4934 21.9842C65.0248 22.158 64.4746 22.2448 63.8428 22.2448ZM64.5852 20.1441C65.1591 20.1441 65.6566 20.0309 66.0778 19.8045C66.499 19.5728 66.8228 19.2674 67.0492 18.8884C67.2809 18.5093 67.3967 18.096 67.3967 17.6484V16.219C67.3072 16.2927 67.1545 16.3611 66.9386 16.4243C66.728 16.4875 66.4911 16.5428 66.2279 16.5902C65.9646 16.6375 65.704 16.6797 65.446 16.7165C65.188 16.7534 64.9643 16.785 64.7747 16.8113C64.3482 16.8692 63.9665 16.964 63.6296 17.0956C63.2926 17.2272 63.0267 17.4115 62.8319 17.6484C62.6371 17.8801 62.5397 18.1802 62.5397 18.5488C62.5397 19.0753 62.7319 19.4728 63.1162 19.7413C63.5006 20.0098 63.9902 20.1441 64.5852 20.1441ZM78.4138 22.2369C77.2029 22.2369 76.163 21.971 75.2943 21.4393C74.4308 20.9075 73.7648 20.173 73.2962 19.2358C72.8329 18.2934 72.6012 17.2088 72.6012 15.982C72.6012 14.75 72.8381 13.6628 73.312 12.7203C73.7858 11.7726 74.4545 11.0355 75.318 10.509C76.1867 9.97725 77.2134 9.71137 78.398 9.71137C79.3826 9.71137 80.254 9.89301 81.0121 10.2563C81.7756 10.6143 82.3837 11.1224 82.8365 11.7805C83.2893 12.4334 83.5473 13.1968 83.6104 14.0708H80.8779C80.7673 13.4864 80.5041 12.9994 80.0881 12.6098C79.6774 12.2149 79.1272 12.0175 78.4375 12.0175C77.8531 12.0175 77.3398 12.1754 76.8975 12.4913C76.4552 12.802 76.1104 13.2495 75.8629 13.8339C75.6207 14.4183 75.4996 15.1186 75.4996 15.9347C75.4996 16.7613 75.6207 17.4721 75.8629 18.067C76.1051 18.6567 76.4447 19.1121 76.8817 19.4333C77.324 19.7492 77.8426 19.9071 78.4375 19.9071C78.8587 19.9071 79.2352 19.8282 79.5669 19.6702C79.9038 19.507 80.1855 19.2727 80.4119 18.9673C80.6383 18.662 80.7936 18.2908 80.8779 17.8538H83.6104C83.542 18.712 83.2893 19.4728 82.8523 20.1362C82.4153 20.7943 81.8203 21.3103 81.0674 21.6841C80.3145 22.0527 79.43 22.2369 78.4138 22.2369ZM88.5642 18.1934L88.5563 14.7421H89.0144L93.3738 9.86932H96.7145L91.352 15.8399H90.7597L88.5642 18.1934ZM85.958 22V5.82576H88.8169V22H85.958ZM93.5713 22L89.6225 16.4796L91.5495 14.4657L96.9909 22H93.5713ZM103.491 22.2369C102.274 22.2369 101.224 21.9842 100.339 21.4788C99.4602 20.968 98.7837 20.2467 98.3098 19.3148C97.836 18.3776 97.599 17.2746 97.599 16.0057C97.599 14.7579 97.836 13.6628 98.3098 12.7203C98.7889 11.7726 99.4576 11.0355 100.316 10.509C101.174 9.97725 102.182 9.71137 103.341 9.71137C104.088 9.71137 104.794 9.83246 105.457 10.0747C106.126 10.3116 106.715 10.6801 107.226 11.1803C107.742 11.6805 108.148 12.3176 108.442 13.0915C108.737 13.8602 108.885 14.7763 108.885 15.8399V16.7165H98.9416V14.7895H106.144C106.139 14.2419 106.02 13.7549 105.789 13.3285C105.557 12.8967 105.233 12.5571 104.817 12.3097C104.407 12.0622 103.928 11.9385 103.38 11.9385C102.796 11.9385 102.282 12.0806 101.84 12.365C101.398 12.644 101.053 13.0126 100.805 13.4706C100.563 13.9234 100.44 14.421 100.434 14.9633V16.6454C100.434 17.351 100.563 17.9564 100.821 18.4619C101.079 18.9621 101.44 19.3464 101.903 19.6149C102.367 19.8782 102.909 20.0098 103.53 20.0098C103.946 20.0098 104.323 19.9519 104.659 19.8361C104.996 19.715 105.289 19.5386 105.536 19.3069C105.784 19.0753 105.97 18.7883 106.097 18.4461L108.766 18.7462C108.598 19.4517 108.277 20.0677 107.803 20.5942C107.334 21.1155 106.734 21.5209 106.002 21.8105C105.27 22.0948 104.433 22.2369 103.491 22.2369ZM111.303 22V9.86932H114.075V11.8911H114.202C114.423 11.1908 114.802 10.6512 115.339 10.2721C115.881 9.88775 116.5 9.69557 117.195 9.69557C117.353 9.69557 117.529 9.70347 117.724 9.71926C117.924 9.72979 118.09 9.74822 118.222 9.77455V12.4044C118.1 12.3623 117.908 12.3255 117.645 12.2939C117.387 12.257 117.137 12.2386 116.895 12.2386C116.374 12.2386 115.905 12.3518 115.489 12.5782C115.078 12.7993 114.755 13.1073 114.518 13.5022C114.281 13.8971 114.162 14.3525 114.162 14.8685V22H111.303ZM131.326 9.86932L127.006 22H123.847L119.527 9.86932H122.575L125.363 18.8805H125.489L128.285 9.86932H131.326ZM138.262 22.2369C137.045 22.2369 135.995 21.9842 135.111 21.4788C134.231 20.968 133.555 20.2467 133.081 19.3148C132.607 18.3776 132.37 17.2746 132.37 16.0057C132.37 14.7579 132.607 13.6628 133.081 12.7203C133.56 11.7726 134.229 11.0355 135.087 10.509C135.945 9.97725 136.953 9.71137 138.112 9.71137C138.859 9.71137 139.565 9.83246 140.228 10.0747C140.897 10.3116 141.487 10.6801 141.997 11.1803C142.513 11.6805 142.919 12.3176 143.213 13.0915C143.508 13.8602 143.656 14.7763 143.656 15.8399V16.7165H133.713V14.7895H140.915C140.91 14.2419 140.792 13.7549 140.56 13.3285C140.328 12.8967 140.004 12.5571 139.588 12.3097C139.178 12.0622 138.699 11.9385 138.151 11.9385C137.567 11.9385 137.053 12.0806 136.611 12.365C136.169 12.644 135.824 13.0126 135.577 13.4706C135.334 13.9234 135.211 14.421 135.205 14.9633V16.6454C135.205 17.351 135.334 17.9564 135.592 18.4619C135.85 18.9621 136.211 19.3464 136.674 19.6149C137.138 19.8782 137.68 20.0098 138.301 20.0098C138.717 20.0098 139.094 19.9519 139.431 19.8361C139.767 19.715 140.06 19.5386 140.307 19.3069C140.555 19.0753 140.742 18.7883 140.868 18.4461L143.537 18.7462C143.369 19.4517 143.048 20.0677 142.574 20.5942C142.105 21.1155 141.505 21.5209 140.773 21.8105C140.041 22.0948 139.204 22.2369 138.262 22.2369ZM146.074 22V9.86932H148.846V11.8911H148.973C149.194 11.1908 149.573 10.6512 150.11 10.2721C150.652 9.88775 151.271 9.69557 151.966 9.69557C152.124 9.69557 152.3 9.70347 152.495 9.71926C152.695 9.72979 152.861 9.74822 152.993 9.77455V12.4044C152.872 12.3623 152.679 12.3255 152.416 12.2939C152.158 12.257 151.908 12.2386 151.666 12.2386C151.145 12.2386 150.676 12.3518 150.26 12.5782C149.849 12.7993 149.526 13.1073 149.289 13.5022C149.052 13.8971 148.933 14.3525 148.933 14.8685V22H146.074ZM164.48 13.0757L161.873 13.36C161.8 13.0968 161.671 12.8493 161.486 12.6177C161.307 12.386 161.065 12.1991 160.76 12.0569C160.455 11.9148 160.081 11.8437 159.638 11.8437C159.044 11.8437 158.543 11.9727 158.138 12.2307C157.738 12.4887 157.54 12.823 157.546 13.2337C157.54 13.5864 157.669 13.8734 157.933 14.0945C158.201 14.3157 158.643 14.4973 159.259 14.6395L161.329 15.0817C162.476 15.3292 163.329 15.7214 163.887 16.2585C164.451 16.7955 164.735 17.4984 164.74 18.3671C164.735 19.1305 164.511 19.8045 164.069 20.3889C163.632 20.968 163.024 21.4208 162.245 21.7473C161.465 22.0737 160.57 22.2369 159.559 22.2369C158.075 22.2369 156.88 21.9263 155.974 21.305C155.068 20.6785 154.529 19.8071 154.355 18.6909L157.143 18.4224C157.269 18.97 157.538 19.3833 157.948 19.6623C158.359 19.9414 158.893 20.0809 159.552 20.0809C160.231 20.0809 160.776 19.9414 161.186 19.6623C161.602 19.3833 161.81 19.0384 161.81 18.6277C161.81 18.2802 161.676 17.9933 161.408 17.7669C161.144 17.5405 160.734 17.3668 160.175 17.2457L158.106 16.8113C156.943 16.5691 156.082 16.1611 155.524 15.5872C154.966 15.008 154.689 14.2762 154.695 13.3916C154.689 12.644 154.892 11.9964 155.303 11.4488C155.719 10.896 156.295 10.4695 157.032 10.1694C157.775 9.86405 158.63 9.71137 159.599 9.71137C161.021 9.71137 162.139 10.0141 162.955 10.6196C163.777 11.2251 164.285 12.0438 164.48 13.0757ZM172.468 22.2369C171.252 22.2369 170.201 21.9842 169.317 21.4788C168.438 20.968 167.761 20.2467 167.287 19.3148C166.813 18.3776 166.576 17.2746 166.576 16.0057C166.576 14.7579 166.813 13.6628 167.287 12.7203C167.766 11.7726 168.435 11.0355 169.293 10.509C170.151 9.97725 171.16 9.71137 172.318 9.71137C173.066 9.71137 173.771 9.83246 174.435 10.0747C175.103 10.3116 175.693 10.6801 176.204 11.1803C176.72 11.6805 177.125 12.3176 177.42 13.0915C177.715 13.8602 177.862 14.7763 177.862 15.8399V16.7165H167.919V14.7895H175.122C175.116 14.2419 174.998 13.7549 174.766 13.3285C174.535 12.8967 174.211 12.5571 173.795 12.3097C173.384 12.0622 172.905 11.9385 172.358 11.9385C171.773 11.9385 171.26 12.0806 170.817 12.365C170.375 12.644 170.03 13.0126 169.783 13.4706C169.541 13.9234 169.417 14.421 169.412 14.9633V16.6454C169.412 17.351 169.541 17.9564 169.799 18.4619C170.057 18.9621 170.417 19.3464 170.881 19.6149C171.344 19.8782 171.886 20.0098 172.508 20.0098C172.924 20.0098 173.3 19.9519 173.637 19.8361C173.974 19.715 174.266 19.5386 174.514 19.3069C174.761 19.0753 174.948 18.7883 175.074 18.4461L177.744 18.7462C177.575 19.4517 177.254 20.0677 176.78 20.5942C176.312 21.1155 175.711 21.5209 174.98 21.8105C174.248 22.0948 173.411 22.2369 172.468 22.2369Z" fill="white"/>
</svg>
