<svg xmlns="http://www.w3.org/2000/svg" width="54" height="54" viewBox="0 0 54 54">
  <g id="insta" transform="translate(0 0)">
    <g id="Group_1766" data-name="Group 1766" transform="translate(0 0)">
      <circle id="Ellipse_49" data-name="Ellipse 49" cx="27" cy="27" r="27" fill="#a0ff00"/>
    </g>
    <path id="Icon_awesome-pinterest-p" data-name="Icon awesome-pinterest-p" d="M9.666.457C4.8.457,0,3.7,0,8.943c0,3.336,1.876,5.231,3.014,5.231.469,0,.739-1.308.739-1.677,0-.441-1.123-1.379-1.123-3.213a6.4,6.4,0,0,1,6.653-6.51c3.227,0,5.615,1.834,5.615,5.2,0,2.516-1.009,7.235-4.279,7.235a2.1,2.1,0,0,1-2.189-2.075c0-1.791,1.251-3.525,1.251-5.373,0-3.137-4.449-2.568-4.449,1.222a5.567,5.567,0,0,0,.455,2.4C5.032,14.2,3.7,18.4,3.7,21.3c0,.9.128,1.777.213,2.672.161.18.081.161.327.071,2.388-3.269,2.3-3.909,3.383-8.188A3.843,3.843,0,0,0,10.9,17.558c5.032,0,7.292-4.9,7.292-9.325C18.2,3.527,14.13.457,9.666.457Z" transform="translate(17.902 14.718)" fill="#2c4109"/>
  </g>
</svg>
