<?xml version="1.0" standalone="no"?>
<!DOCTYPE svg PUBLIC "-//W3C//DTD SVG 20010904//EN"
 "http://www.w3.org/TR/2001/REC-SVG-20010904/DTD/svg10.dtd">
<svg version="1.0" xmlns="http://www.w3.org/2000/svg"
 width="600.000000pt" height="600.000000pt" viewBox="0 0 600.000000 600.000000"
 preserveAspectRatio="xMidYMid meet">

<g transform="translate(0.000000,600.000000) scale(0.100000,-0.100000)"
fill="#000000" stroke="none">
<path d="M0 3000 l0 -3000 3000 0 3000 0 0 3000 0 3000 -3000 0 -3000 0 0
-3000z m2854 2189 c7 11 151 10 161 -1 4 -4 18 -3 31 2 13 5 25 6 28 2 3 -5
26 -7 53 -7 26 1 54 -3 62 -9 12 -9 13 -8 6 4 -7 13 -6 13 7 2 9 -7 49 -14 89
-16 41 -3 74 -5 74 -6 0 -2 11 -4 55 -13 81 -17 126 -29 137 -39 7 -6 13 -7
13 -2 0 5 4 4 8 -3 4 -6 30 -14 57 -17 49 -5 128 -36 140 -56 3 -5 19 -10 35
-10 16 0 46 -10 67 -22 21 -12 61 -33 88 -48 28 -14 65 -36 84 -48 19 -11 38
-19 43 -16 4 3 8 -2 8 -11 0 -9 4 -14 9 -10 5 3 15 -1 23 -8 7 -8 24 -19 36
-26 12 -7 20 -17 16 -23 -4 -6 -3 -8 3 -5 6 4 18 -2 28 -13 10 -11 23 -20 29
-20 6 0 24 -11 39 -25 15 -14 27 -23 27 -20 0 3 8 -3 18 -12 11 -10 17 -22 14
-27 -3 -5 0 -6 5 -3 11 7 283 -255 318 -307 11 -16 32 -43 48 -61 15 -18 27
-37 27 -43 0 -6 4 -12 9 -14 10 -4 91 -136 91 -150 0 -5 3 -7 8 -4 4 2 19 -20
32 -50 14 -30 28 -54 33 -54 4 0 7 -8 7 -19 0 -10 7 -24 15 -31 8 -7 15 -17
15 -22 0 -6 6 -24 14 -41 39 -85 67 -168 60 -178 -4 -8 -3 -9 4 -5 8 5 12 -2
12 -22 0 -16 7 -42 15 -58 16 -34 44 -150 55 -237 4 -31 12 -63 18 -70 6 -7 9
-64 8 -140 -1 -70 1 -130 6 -133 5 -3 4 -12 -3 -20 -9 -11 -10 -46 -5 -128 4
-65 2 -132 -3 -157 -5 -24 -11 -65 -12 -92 -2 -31 -9 -53 -21 -64 -13 -12 -15
-19 -7 -29 6 -8 8 -21 3 -31 -4 -10 -8 -20 -9 -23 -1 -3 -7 -18 -13 -33 -7
-16 -12 -34 -12 -40 0 -7 -9 -37 -21 -67 -11 -30 -21 -59 -22 -65 -2 -5 -21
-46 -44 -90 -22 -44 -44 -94 -47 -112 -4 -17 -14 -37 -23 -44 -13 -11 -34 -54
-34 -69 0 -3 -8 -13 -16 -22 -9 -10 -13 -18 -8 -18 4 0 1 -7 -6 -16 -7 -9 -18
-26 -24 -38 -7 -11 -17 -20 -23 -19 -6 2 -9 -6 -7 -18 4 -17 2 -19 -10 -9 -13
10 -15 8 -15 -14 0 -16 -4 -25 -10 -21 -5 3 -10 -1 -10 -10 0 -9 -4 -13 -10
-10 -6 3 -10 -5 -10 -19 0 -20 -4 -24 -21 -21 -18 4 -19 2 -7 -12 9 -12 9 -15
1 -9 -8 4 -13 1 -13 -8 0 -9 -5 -15 -12 -13 -6 1 -17 -8 -23 -20 -7 -13 -15
-20 -18 -16 -4 3 -7 -1 -7 -11 0 -10 5 -14 12 -10 7 4 8 3 4 -4 -4 -6 -13 -9
-21 -5 -8 3 -15 -1 -15 -8 0 -7 -3 -9 -7 -6 -3 4 -11 -3 -17 -16 -7 -12 -18
-22 -26 -22 -8 0 -19 -10 -26 -22 -6 -13 -14 -20 -17 -16 -4 3 -7 0 -7 -9 0
-19 -44 -60 -54 -51 -4 5 -7 -1 -5 -12 5 -30 -9 -49 -27 -34 -11 9 -14 9 -14
0 0 -16 -26 -42 -34 -34 -3 4 -6 -1 -6 -11 0 -9 -4 -14 -10 -11 -5 3 -10 1
-10 -4 0 -6 -8 -20 -17 -31 -13 -14 -20 -17 -30 -8 -10 8 -13 6 -13 -6 0 -17
-68 -83 -81 -79 -4 1 -13 -4 -19 -12 -7 -8 -18 -15 -26 -15 -7 0 -19 -8 -26
-18 -7 -11 -34 -30 -60 -44 -26 -14 -58 -36 -72 -49 -14 -13 -27 -22 -29 -19
-3 3 -13 -3 -24 -12 -10 -10 -28 -19 -39 -21 -10 -1 -34 -10 -53 -20 -19 -9
-42 -17 -51 -17 -9 0 -27 -11 -40 -25 -13 -14 -26 -23 -28 -20 -3 3 -10 1 -16
-4 -18 -13 -48 -22 -41 -12 3 5 1 13 -5 16 -6 4 -9 1 -8 -6 2 -7 -3 -14 -9
-15 -7 -1 -14 -2 -15 -4 -2 -1 -10 -3 -19 -5 -33 -6 -59 -17 -59 -24 0 -4 -17
-8 -37 -9 -21 -2 -39 -7 -41 -12 -2 -5 -9 -7 -16 -4 -6 2 -32 -3 -56 -11 -59
-22 -95 -28 -153 -26 -26 1 -57 -4 -69 -10 -25 -13 -272 -18 -338 -6 -25 4
-85 12 -135 18 -119 13 -123 14 -131 22 -4 4 -22 7 -39 7 -18 0 -38 7 -45 15
-7 9 -24 14 -39 12 -14 -3 -31 0 -37 4 -10 8 -44 17 -72 18 -7 1 -10 6 -6 13
5 7 0 9 -14 6 -12 -4 -26 0 -33 8 -6 8 -16 11 -22 7 -6 -4 -7 -1 -2 8 7 11 6
12 -7 2 -8 -7 -17 -11 -20 -8 -2 3 -18 7 -34 9 -31 5 -146 51 -179 72 -11 7
-57 32 -103 56 -46 25 -92 52 -103 61 -10 9 -23 17 -27 17 -5 0 -22 10 -39 23
-17 12 -41 29 -53 37 -72 49 -187 151 -270 238 -126 133 -143 153 -157 185 -7
15 -17 27 -22 27 -9 0 -90 109 -104 140 -4 8 -21 35 -37 60 -37 57 -90 165
-90 183 0 8 -6 20 -14 26 -8 7 -18 25 -21 41 -3 16 -12 34 -20 40 -8 6 -17 25
-20 41 -4 16 -11 31 -16 34 -5 4 -9 16 -9 29 0 12 -4 26 -9 32 -5 5 -11 23
-12 39 -2 17 -8 36 -14 44 -7 11 -7 13 1 8 6 -3 11 0 11 8 0 8 -4 12 -8 10 -3
-3 -10 5 -14 18 -4 12 -8 24 -9 27 -2 3 -6 32 -11 65 -4 33 -9 67 -10 75 -2 8
-9 13 -16 12 -8 -2 -11 0 -7 4 4 4 3 13 -3 20 -7 8 -6 14 2 20 8 5 9 3 4 -6
-6 -9 -4 -11 5 -5 9 6 11 4 5 -5 -5 -9 -4 -11 4 -6 8 6 9 12 2 20 -6 7 -7 16
-3 20 4 4 1 6 -7 4 -11 -2 -14 7 -12 41 1 24 -1 41 -6 38 -5 -3 -10 5 -11 18
-1 13 3 27 8 30 6 3 10 12 10 18 0 7 -4 6 -10 -3 -7 -11 -10 -1 -11 35 -1 28
0 58 1 69 1 10 -2 16 -8 13 -5 -4 -9 0 -9 8 0 8 4 12 9 9 4 -3 8 2 8 11 0 9
-4 14 -8 11 -5 -3 -9 1 -9 9 0 8 4 12 9 9 4 -3 8 2 8 10 0 8 -4 17 -9 21 -5 3
-7 18 -4 33 2 15 6 52 8 82 2 30 4 57 5 60 1 3 1 13 0 24 -1 13 2 16 12 10 10
-6 11 -5 1 7 -10 12 -9 35 3 110 46 286 162 586 317 819 47 71 120 172 142
196 6 6 34 38 63 72 172 197 384 363 627 488 87 44 266 121 299 129 6 1 18 5
26 8 23 10 241 64 280 70 156 23 188 27 207 23 13 -3 25 0 29 5 4 6 10 6 19
-1 8 -7 15 -7 19 -1z"/>
<path d="M2966 4258 c3 -5 -16 -8 -43 -7 -26 1 -50 0 -53 -1 -15 -5 -146 -26
-188 -29 -7 -1 -11 -5 -8 -10 4 -5 -1 -8 -9 -7 -18 3 -98 -9 -135 -19 -14 -4
-34 -8 -45 -10 -11 -2 -21 -4 -22 -5 -2 -2 -7 -4 -13 -5 -5 -1 -11 -3 -12 -5
-2 -1 -14 -3 -28 -4 -44 -6 -105 -18 -114 -24 -5 -3 -37 -7 -70 -9 -41 -3 -71
-11 -90 -25 -16 -11 -25 -14 -21 -7 5 8 -1 6 -13 -4 -13 -12 -28 -16 -41 -12
-12 3 -21 2 -21 -4 0 -5 -8 -8 -19 -6 -10 2 -29 -2 -43 -9 -13 -7 -32 -12 -41
-10 -10 1 -17 -4 -17 -13 0 -11 -3 -13 -13 -5 -18 15 -42 -6 -57 -53 -7 -22
-15 -47 -18 -55 -2 -8 -6 -34 -8 -57 -2 -24 -7 -51 -12 -60 -5 -10 -6 -27 -2
-38 4 -11 3 -27 -4 -35 -6 -8 -1 -6 12 4 12 11 22 16 22 11 0 -4 8 -1 17 6 10
9 14 9 10 2 -5 -8 1 -8 19 2 15 8 31 12 36 9 5 -3 7 -2 6 3 -2 4 2 8 7 8 5 0
9 -3 8 -6 -1 -3 4 -6 12 -6 8 0 13 5 12 11 -1 5 7 10 19 11 11 0 27 5 35 11 8
6 27 11 42 10 16 -1 31 3 34 8 4 5 1 6 -7 1 -8 -5 -11 -4 -7 2 4 5 19 9 34 8
15 -1 34 3 41 8 8 6 32 12 55 13 23 1 43 3 45 4 1 1 7 4 12 5 6 1 12 4 15 5 3
1 22 3 43 4 22 0 45 6 53 12 8 6 27 10 42 9 15 -1 30 2 33 7 3 5 12 4 19 -2
10 -8 15 -8 20 0 5 8 11 7 23 -2 13 -11 14 -11 7 1 -6 11 -5 12 6 5 21 -13 39
-14 36 -1 -1 6 7 11 18 12 11 0 26 4 33 9 7 4 52 9 99 10 75 3 88 0 106 -18
11 -12 17 -15 13 -8 -4 7 -1 12 8 13 9 1 22 2 29 3 6 1 18 -3 26 -8 11 -8 13
-8 7 2 -4 7 -1 12 8 12 9 0 16 6 16 13 0 9 2 9 8 -1 11 -17 52 -24 52 -9 0 8
3 8 9 -1 11 -18 20 -17 36 4 12 17 45 29 44 16 -1 -4 -1 -14 0 -22 1 -13 2
-13 11 0 9 13 10 13 10 0 0 -13 1 -13 10 0 9 13 10 13 10 0 0 -9 -5 -21 -10
-26 -7 -7 -6 -11 5 -11 8 0 15 7 15 16 0 13 2 14 9 2 5 -8 16 -11 25 -8 9 4
16 2 16 -4 0 -6 5 -7 10 -4 6 3 10 2 10 -3 0 -5 14 -8 30 -7 22 2 30 -2 31
-14 0 -12 2 -11 9 4 5 11 9 14 9 7 1 -8 6 -10 14 -6 9 6 9 5 0 -8 -11 -13 -8
-15 27 -13 22 1 40 -2 40 -7 0 -5 5 -6 10 -3 6 3 10 1 10 -5 0 -6 5 -8 10 -5
11 7 14 -18 3 -29 -13 -12 -11 -33 3 -33 9 0 10 4 5 11 -6 7 -4 16 5 24 11 10
14 10 14 0 0 -9 3 -9 10 2 8 13 10 13 10 -1 0 -18 23 -32 55 -34 21 -2 76 -23
61 -24 -5 -1 -3 -8 4 -16 10 -12 16 -13 26 -4 11 9 14 8 14 -5 0 -10 5 -14 10
-11 6 3 10 -1 10 -10 0 -9 4 -14 8 -11 5 3 9 -1 9 -9 0 -8 -3 -13 -5 -10 -3 3
-11 0 -18 -6 -8 -7 -14 -6 -20 2 -4 7 -3 9 4 5 6 -3 13 -2 16 3 4 5 2 12 -3
15 -5 4 -13 1 -18 -6 -12 -20 -12 -38 0 -35 7 1 11 -4 9 -11 -1 -8 2 -11 6 -8
12 7 44 -28 35 -38 -5 -4 -1 -6 7 -4 8 2 14 -3 13 -9 -2 -7 3 -12 10 -10 6 1
11 -4 10 -10 -2 -7 3 -12 10 -10 6 1 11 -4 10 -10 -2 -7 3 -12 10 -10 6 1 11
-3 10 -9 -1 -6 5 -11 13 -11 9 0 -7 22 -36 52 -29 30 -45 52 -36 52 8 0 14 -5
13 -11 -1 -6 4 -10 10 -9 7 2 12 -3 10 -10 -1 -6 4 -11 10 -10 7 2 12 -3 10
-10 -1 -6 4 -11 10 -10 7 2 12 -3 10 -10 -1 -6 4 -11 11 -9 8 1 11 -1 8 -6 -3
-5 6 -19 19 -32 20 -19 23 -26 13 -39 -7 -9 -8 -13 -4 -9 5 5 14 -2 21 -15 6
-12 16 -21 22 -20 12 2 11 -36 -1 -56 -6 -10 -5 -12 2 -7 9 5 12 -7 12 -39 0
-32 3 -44 12 -39 7 5 8 3 2 -7 -14 -22 -13 -36 2 -36 9 0 11 4 4 12 -7 8 -5
12 4 12 15 0 16 -14 2 -36 -6 -10 -5 -12 2 -7 7 4 12 1 12 -9 0 -9 -4 -14 -8
-11 -5 3 -9 -1 -9 -9 0 -8 4 -12 9 -9 4 3 8 -2 8 -11 0 -9 -4 -14 -8 -11 -5 3
-9 -1 -9 -9 0 -8 4 -12 9 -9 4 3 8 -2 8 -11 0 -9 -4 -14 -9 -11 -11 7 -9 -13
3 -33 6 -9 5 -12 -1 -8 -5 3 -10 0 -10 -8 0 -8 4 -12 9 -9 4 3 8 -2 8 -11 0
-9 -4 -14 -8 -11 -5 3 -9 -1 -9 -9 0 -8 4 -12 9 -9 4 3 8 -2 8 -11 0 -10 5
-13 13 -9 9 6 9 5 0 -8 -7 -8 -10 -18 -6 -22 11 -10 12 -37 2 -30 -5 3 -9 -2
-9 -11 0 -10 -5 -13 -12 -9 -7 5 -8 3 -2 -7 14 -22 12 -76 -3 -76 -8 0 -10 4
-3 12 7 8 5 12 -4 12 -13 0 -16 -32 -5 -52 8 -14 -16 -57 -26 -47 -5 4 -4 0 1
-8 13 -24 13 -37 -2 -37 -9 0 -11 4 -4 12 7 8 5 12 -4 12 -15 0 -16 -14 -2
-36 6 -9 5 -12 -2 -7 -6 3 -14 1 -19 -6 -10 -17 -13 -39 -4 -33 4 2 8 -2 8
-10 0 -8 -4 -12 -9 -9 -4 3 -8 -2 -8 -11 0 -9 -4 -13 -10 -10 -5 3 -10 -1 -10
-10 0 -10 -5 -13 -12 -9 -9 6 -9 3 0 -9 12 -14 11 -16 -6 -12 -21 4 -23 -9 -8
-34 6 -10 5 -12 -2 -7 -7 4 -12 1 -12 -9 0 -10 -5 -13 -12 -9 -9 6 -9 3 0 -9
12 -14 11 -16 -8 -12 -18 3 -20 2 -10 -10 14 -17 -11 -15 -33 3 -12 11 -15 11
-13 0 1 -7 5 -18 9 -25 4 -6 3 -15 -3 -18 -8 -5 -7 -11 1 -21 10 -12 10 -15
-2 -12 -8 2 -13 -2 -12 -8 3 -14 -41 -12 -59 4 -12 9 -15 9 -15 -3 0 -8 4 -12
8 -10 3 3 12 -1 18 -9 9 -10 7 -17 -5 -27 -10 -8 -20 -14 -23 -14 -3 0 -5 -3
-3 -8 1 -4 -4 -6 -10 -5 -7 2 -12 -2 -11 -8 1 -7 -14 -10 -37 -9 -30 1 -37 -1
-30 -10 7 -9 5 -17 -7 -26 -9 -8 -14 -9 -10 -3 4 7 0 17 -7 23 -10 8 -16 9
-21 1 -3 -6 -11 -8 -16 -4 -5 3 -8 0 -7 -8 2 -7 -2 -12 -8 -11 -6 1 -11 -5
-11 -13 0 -12 3 -12 17 1 14 13 17 13 17 0 0 -8 -4 -12 -8 -10 -3 3 -12 -2
-19 -9 -6 -8 -20 -13 -30 -11 -11 2 -22 -1 -26 -6 -4 -6 -11 -6 -20 2 -11 9
-14 8 -14 -3 0 -10 -9 -14 -27 -13 -16 1 -37 -5 -48 -14 -16 -13 -18 -13 -8
-1 10 13 5 15 -42 15 -29 0 -52 -2 -49 -6 2 -4 17 -5 34 -4 17 1 32 0 35 -4 8
-13 -83 -5 -99 8 -10 8 -16 10 -15 5 4 -23 -3 -26 -22 -8 -14 13 -20 14 -17 4
2 -11 -9 -14 -49 -15 -28 0 -55 -4 -60 -9 -4 -5 -3 -6 4 -2 6 3 14 2 17 -3 8
-13 -19 -8 -37 7 -10 9 -17 10 -22 2 -3 -6 -10 -8 -15 -5 -5 3 -11 1 -15 -5
-4 -6 -12 -7 -18 -4 -7 4 -8 3 -4 -2 9 -10 58 -14 52 -4 -2 4 2 7 9 7 7 0 13
-6 13 -14 0 -7 -3 -11 -5 -8 -3 3 -14 -3 -24 -12 -15 -13 -19 -14 -16 -3 2 9
-6 14 -22 15 -14 1 -24 6 -23 11 1 6 -4 11 -11 11 -7 0 -13 -6 -13 -13 0 -7 4
-11 9 -8 15 9 8 -3 -9 -17 -10 -8 -14 -9 -10 -2 4 6 3 14 -3 18 -6 4 -8 10 -6
14 3 4 -1 8 -8 8 -7 0 -13 -6 -13 -13 0 -7 5 -10 11 -7 6 4 5 -1 -3 -11 -10
-11 -17 -14 -24 -7 -7 7 -15 7 -22 1 -8 -7 -12 -5 -12 4 0 9 8 13 20 11 15 -4
17 -2 7 11 -10 11 -16 12 -28 2 -8 -7 -23 -13 -32 -13 -9 0 -25 -7 -35 -15
-11 -8 -16 -10 -12 -4 4 6 -2 19 -12 28 -15 13 -18 14 -18 1 0 -8 3 -12 7 -10
4 2 7 -2 7 -9 0 -7 -6 -13 -13 -13 -7 0 -11 3 -9 7 3 4 -5 16 -16 26 -15 13
-20 14 -17 4 2 -10 -7 -14 -29 -15 -17 0 -35 -3 -39 -7 -4 -4 -12 -3 -19 2 -8
7 -12 5 -12 -5 0 -8 3 -12 7 -10 4 2 7 -2 7 -9 0 -7 -6 -13 -13 -13 -7 0 -12
5 -11 11 1 7 -74 10 -230 10 -149 1 -231 4 -230 11 1 5 -12 10 -30 9 -18 0
-30 3 -27 7 2 4 13 6 24 4 11 -2 22 -1 24 3 3 4 -40 7 -94 7 -54 0 -97 2 -94
6 2 4 0 10 -6 14 -6 4 -8 10 -6 14 3 4 -1 8 -8 8 -7 0 -13 -6 -13 -13 0 -7 3
-11 7 -9 4 2 7 -2 7 -9 0 -7 -6 -13 -13 -13 -7 0 -12 5 -11 11 1 5 -7 10 -19
11 -11 0 -28 6 -36 12 -8 7 -17 12 -19 10 -2 -1 -3 0 -1 2 1 3 9 6 17 7 9 1
12 -2 9 -8 -5 -7 -2 -8 6 -3 8 5 11 4 6 -3 -7 -12 19 -10 31 2 4 4 1 6 -7 4
-8 -1 -14 2 -13 8 1 6 -10 10 -25 9 -15 -1 -35 5 -45 14 -15 12 -18 12 -15 1
2 -9 -8 -14 -34 -15 -20 -1 -35 2 -32 6 2 4 13 6 24 4 11 -2 22 0 24 4 3 4
-13 7 -34 6 -27 -1 -44 3 -53 14 -10 14 -10 14 5 3 12 -10 18 -10 24 -1 4 7 3
9 -3 6 -6 -4 -16 -1 -22 6 -6 9 -32 13 -69 12 -42 -1 -59 2 -59 12 0 9 4 10
13 2 8 -7 14 -6 20 2 4 7 3 9 -3 6 -6 -4 -16 -1 -22 7 -6 7 -25 12 -41 11 -25
-2 -28 0 -19 11 8 10 6 12 -11 9 -19 -4 -20 -2 -8 12 7 9 8 14 2 10 -7 -4 -17
0 -24 7 -6 8 -20 13 -30 11 -11 -2 -19 1 -17 8 1 7 -4 11 -11 9 -6 -1 -11 3
-10 10 2 7 -2 12 -9 13 -7 0 -18 6 -25 14 -11 12 -10 13 2 6 13 -8 13 -6 1 8
-7 9 -18 14 -24 10 -5 -3 -7 -1 -4 4 4 6 -3 19 -14 29 -22 19 -52 78 -52 100
0 7 -4 11 -9 8 -4 -3 -9 2 -9 10 -2 19 -5 35 -9 39 -2 1 -4 18 -5 37 -2 19 -4
36 -5 38 -2 1 -3 14 -4 30 -1 15 -4 32 -7 37 -8 15 -4 249 5 263 4 7 8 30 8
52 0 22 4 43 9 45 4 3 6 14 4 25 -2 11 0 22 5 25 4 3 6 15 2 27 -4 16 -2 19 9
13 11 -6 12 -5 1 6 -13 15 -17 43 -4 35 5 -3 9 1 9 9 0 8 -4 15 -9 15 -4 0 -8
5 -8 11 0 5 4 8 8 5 5 -3 9 1 9 9 0 8 -4 12 -9 9 -12 -8 -10 10 4 24 9 9 9 12
-1 12 -11 0 -11 3 0 17 12 15 12 16 -1 8 -13 -8 -13 -6 -2 8 8 9 14 43 15 75
1 33 5 58 8 56 3 -2 11 13 17 32 9 30 8 33 -4 23 -7 -6 -11 -15 -9 -20 7 -10
-50 -41 -59 -32 -3 4 -6 0 -6 -9 0 -8 -9 -23 -20 -33 -15 -14 -17 -21 -9 -32
7 -7 9 -16 5 -20 -3 -3 -6 0 -6 8 0 11 -2 11 -10 -1 -9 -13 -10 -13 -10 0 0 8
-8 0 -16 -17 -14 -28 -14 -36 -3 -50 13 -16 12 -17 -3 -5 -14 11 -18 9 -31
-18 -9 -17 -12 -28 -7 -25 5 3 12 0 16 -6 4 -7 3 -9 -3 -6 -6 4 -18 -2 -27
-12 -11 -13 -14 -21 -7 -26 6 -3 11 -12 11 -18 0 -8 -3 -8 -9 2 -15 23 -32
-15 -32 -72 0 -25 -2 -27 -17 -15 -15 11 -15 10 1 -8 9 -11 14 -24 10 -28 -11
-11 -12 -37 -1 -30 6 4 8 -2 3 -16 -5 -15 -3 -20 3 -16 6 3 14 1 18 -5 4 -7 3
-9 -4 -5 -6 3 -14 2 -17 -4 -5 -8 -12 -7 -23 2 -10 7 -6 -1 8 -17 14 -16 18
-24 8 -17 -10 8 -19 9 -22 3 -4 -5 -2 -12 4 -16 6 -4 7 -12 3 -18 -4 -7 -8
-62 -8 -123 0 -82 3 -111 12 -111 9 0 10 4 3 12 -7 8 -5 12 5 12 7 0 14 -3 13
-6 -4 -42 4 -181 11 -177 5 4 4 -5 -2 -18 -7 -13 -16 -22 -22 -18 -5 3 -5 -1
1 -9 6 -8 10 -22 9 -31 -2 -10 2 -21 7 -25 6 -3 8 -1 4 5 -3 6 -2 13 3 16 5 3
12 -4 16 -17 11 -35 12 -41 3 -53 -5 -7 -2 -17 7 -24 8 -7 12 -17 8 -23 -3 -6
-1 -7 5 -3 7 4 12 1 12 -9 0 -10 5 -13 13 -9 6 4 9 3 4 -1 -4 -5 1 -18 10 -29
15 -18 16 -19 1 -8 -14 11 -16 10 -13 -5 1 -10 7 -17 12 -16 5 1 10 -4 10 -12
0 -23 65 -145 74 -139 5 3 9 -4 9 -16 0 -12 4 -18 10 -15 5 3 10 1 10 -6 0
-19 108 -117 185 -168 104 -68 273 -143 365 -161 30 -6 93 -20 140 -30 131
-28 381 -44 570 -36 290 12 493 33 483 50 -4 6 2 4 12 -4 11 -9 16 -10 11 -2
-4 7 -2 12 6 13 7 0 76 2 153 3 77 2 160 9 185 16 25 7 52 14 60 15 25 3 104
26 122 36 10 5 23 9 29 9 16 0 214 101 217 111 2 5 10 9 18 9 8 0 14 5 14 10
0 6 6 10 14 10 8 0 22 10 31 23 8 12 16 20 18 17 5 -10 147 125 199 190 46 57
108 149 108 160 0 5 3 10 8 12 20 9 116 234 108 255 -3 8 -2 12 2 9 18 -11 52
217 52 344 -1 119 -7 159 -55 368 -3 12 -17 48 -30 79 -14 30 -25 59 -25 64 0
4 -23 45 -52 91 -28 46 -57 95 -65 109 -24 47 -218 235 -294 285 -135 89 -300
163 -389 177 -14 2 -32 7 -40 10 -8 3 -55 8 -104 10 -56 3 -91 9 -96 17 -5 8
-13 9 -21 4 -18 -11 -40 -14 -35 -5 3 4 -11 7 -29 7 -18 0 -31 -4 -29 -8z
m-591 -377 c-9 -8 -36 -10 -30 -2 2 4 11 8 20 8 8 0 13 -3 10 -6z m1262 -242
c-1 -4 3 -6 8 -5 6 0 9 4 8 7 -1 3 4 6 11 6 7 0 13 -6 13 -14 0 -7 -3 -11 -5
-8 -3 3 -11 0 -17 -5 -8 -7 -17 -4 -29 8 -13 15 -13 19 -2 19 8 0 14 -4 13 -8z
m-2688 -382 c8 -10 7 -14 -2 -14 -8 0 -14 6 -14 14 0 7 1 13 2 13 2 0 8 -6 14
-13z m-35 -381 c2 -72 -7 -62 -12 12 -2 31 0 54 3 50 4 -4 8 -32 9 -62z m491
-565 c-9 -8 -36 -10 -30 -2 2 4 11 8 20 8 8 0 13 -3 10 -6z m2035 -37 c0 -8
-5 -12 -10 -9 -6 4 -8 11 -5 16 9 14 15 11 15 -7z m-1966 -2 c3 -5 -1 -9 -9
-9 -8 0 -12 4 -9 9 3 4 7 8 9 8 2 0 6 -4 9 -8z m51 -1 c-9 -8 -36 -10 -30 -2
2 4 11 8 20 8 8 0 13 -3 10 -6z m2184 -108 c31 -37 40 -63 22 -63 -5 0 -16 -3
-24 -6 -9 -3 -27 10 -47 36 -26 33 -30 43 -20 55 19 23 36 18 69 -22z m-1795
-11 c3 -5 -1 -9 -9 -9 -8 0 -12 4 -9 9 3 4 7 8 9 8 2 0 6 -4 9 -8z m663 -15
c0 -9 -10 -13 -26 -12 -14 1 -34 -5 -43 -12 -15 -13 -16 -13 -14 4 2 13 11 18
34 18 17 0 34 3 38 8 10 10 11 9 11 -6z m-303 -25 c3 -5 -1 -9 -9 -9 -8 0 -12
4 -9 9 3 4 7 8 9 8 2 0 6 -4 9 -8z m40 0 c3 -5 -1 -9 -9 -9 -8 0 -12 4 -9 9 3
4 7 8 9 8 2 0 6 -4 9 -8z m40 0 c3 -5 -1 -9 -9 -9 -8 0 -12 4 -9 9 3 4 7 8 9
8 2 0 6 -4 9 -8z m80 -3 c3 -2 -10 -5 -29 -5 -18 0 -32 3 -30 7 5 7 52 6 59
-2z"/>
<path d="M2926 3912 c-3 -5 1 -9 9 -9 8 0 12 4 9 9 -3 4 -7 8 -9 8 -2 0 -6 -4
-9 -8z"/>
<path d="M2860 3905 c0 -2 6 -8 13 -14 10 -8 14 -7 14 2 0 8 -6 14 -14 14 -7
0 -13 -1 -13 -2z"/>
<path d="M3240 3834 c0 -8 5 -12 10 -9 6 4 8 11 5 16 -9 14 -15 11 -15 -7z"/>
<path d="M3206 3832 c-3 -5 1 -9 9 -9 8 0 12 4 9 9 -3 4 -7 8 -9 8 -2 0 -6 -4
-9 -8z"/>
<path d="M3285 3768 c-32 -18 -44 -40 -44 -78 -1 -53 26 -81 78 -82 87 -1 122
82 61 142 -32 32 -62 37 -95 18z"/>
<path d="M3576 3701 c-4 -5 -2 -12 3 -15 5 -4 12 -2 15 3 4 5 2 12 -3 15 -5 4
-12 2 -15 -3z"/>
<path d="M1526 3672 c-3 -5 1 -9 9 -9 8 0 12 4 9 9 -3 4 -7 8 -9 8 -2 0 -6 -4
-9 -8z"/>
<path d="M1320 3602 c0 -15 28 -47 36 -40 2 3 -4 16 -15 29 -12 14 -20 18 -21
11z"/>
<path d="M3745 3490 c-4 -6 -1 -9 7 -8 7 2 12 -2 11 -8 -1 -6 5 -11 13 -11 11
0 11 4 -3 19 -19 21 -20 21 -28 8z"/>
<path d="M1180 3420 c0 -11 -4 -20 -10 -20 -5 0 -10 -5 -10 -12 0 -6 9 -3 21
8 12 10 23 18 25 17 13 -9 13 -1 0 12 -20 20 -26 19 -26 -5z"/>
<path d="M3803 3397 c0 -8 6 -14 14 -14 9 0 10 4 2 14 -6 7 -12 13 -14 13 -1
0 -2 -6 -2 -13z"/>
<path d="M1538 3133 c-20 -5 -24 -29 -5 -31 6 0 22 -4 34 -7 17 -5 25 -3 29
10 11 27 -16 39 -58 28z"/>
<path d="M3863 2975 c0 -8 4 -12 9 -9 5 3 6 10 3 15 -9 13 -12 11 -12 -6z"/>
<path d="M3843 2875 c0 -6 6 -12 12 -12 6 0 12 6 12 12 0 6 -6 12 -12 12 -6 0
-12 -6 -12 -12z"/>
<path d="M895 2761 c-3 -5 -2 -12 3 -15 5 -3 9 1 9 9 0 17 -3 19 -12 6z"/>
<path d="M3624 2426 c1 -13 -4 -20 -12 -18 -8 1 -11 -2 -7 -8 5 -8 11 -7 21 1
8 6 12 14 9 17 -3 3 0 10 5 17 7 8 5 12 -4 12 -7 0 -13 -10 -12 -21z"/>
<path d="M3523 2356 c1 -6 -4 -10 -10 -8 -7 1 -12 -4 -10 -10 1 -7 -4 -12 -11
-10 -8 1 -11 -2 -7 -8 5 -8 11 -7 21 1 8 6 14 8 14 3 0 -12 24 14 26 29 1 8
-4 14 -12 14 -7 0 -12 -5 -11 -11z"/>
<path d="M3566 2358 c3 -5 10 -6 15 -3 13 9 11 12 -6 12 -8 0 -12 -4 -9 -9z"/>
<path d="M3323 2234 c0 -9 5 -10 11 -5 6 5 19 7 29 5 11 -1 16 0 12 4 -12 12
-52 9 -52 -4z"/>
<path d="M3266 2218 c3 -5 10 -6 15 -3 13 9 11 12 -6 12 -8 0 -12 -4 -9 -9z"/>
<path d="M1804 2194 c2 -14 12 -19 40 -19 20 -1 39 2 41 5 2 4 -8 6 -23 5 -15
-1 -35 5 -44 12 -15 13 -16 13 -14 -3z"/>
<path d="M2004 2154 c2 -14 12 -19 40 -19 20 -1 40 3 43 9 3 6 2 8 -2 3 -5 -4
-17 1 -27 10 -11 10 -19 13 -18 8 5 -24 -1 -27 -19 -11 -19 17 -19 17 -17 0z"/>
<path d="M2643 2154 c0 -9 5 -10 11 -5 6 5 19 7 29 5 11 -1 16 0 12 4 -12 12
-52 9 -52 -4z"/>
<path d="M2105 2139 c5 -7 52 -6 59 2 3 2 -10 5 -29 5 -18 0 -32 -3 -30 -7z"/>
<path d="M2186 2138 c3 -5 10 -6 15 -3 13 9 11 12 -6 12 -8 0 -12 -4 -9 -9z"/>
<path d="M4701 1857 c-1 -10 -5 -15 -11 -12 -5 3 -10 -1 -10 -10 0 -9 -5 -13
-10 -10 -6 4 -10 3 -9 -2 5 -29 -2 -41 -23 -35 -13 3 -19 1 -15 -5 4 -6 0 -16
-8 -23 -8 -7 -15 -18 -15 -24 0 -6 -10 -16 -22 -21 -13 -6 -22 -16 -20 -23 1
-7 -4 -12 -11 -12 -8 0 -22 -10 -33 -22 -12 -14 -14 -18 -4 -13 8 4 5 -3 -7
-17 -13 -13 -23 -29 -23 -34 0 -17 -45 -51 -63 -48 -9 1 -17 -4 -17 -12 0 -8
5 -14 10 -14 26 0 100 56 100 75 0 7 9 20 20 30 11 10 20 24 20 32 0 7 7 13
15 13 9 0 20 12 25 26 6 14 18 28 28 31 10 2 27 21 37 41 10 20 28 47 38 59
11 12 17 28 14 35 -4 8 -6 7 -6 -5z"/>
<path d="M4463 1513 c0 -9 4 -10 14 -2 7 6 13 12 13 14 0 1 -6 2 -13 2 -8 0
-14 -6 -14 -14z"/>
<path d="M4373 1498 c-4 -7 -8 -17 -8 -23 -1 -5 -6 -9 -12 -8 -5 1 -23 -11
-38 -27 -16 -17 -25 -30 -21 -30 4 0 0 -7 -9 -16 -9 -9 -14 -19 -11 -21 3 -3
27 18 54 45 28 28 53 48 56 45 3 -4 6 6 6 20 0 30 -5 34 -17 15z"/>
<path d="M4420 1454 c0 -8 5 -12 10 -9 6 4 8 11 5 16 -9 14 -15 11 -15 -7z"/>
<path d="M4067 1403 c-10 -9 -8 -51 2 -57 14 -9 31 18 24 42 -5 22 -14 27 -26
15z"/>
<path d="M4170 1300 c-9 -6 -10 -10 -3 -10 6 0 15 5 18 10 8 12 4 12 -15 0z"/>
<path d="M4200 1269 c0 -5 5 -7 10 -4 6 3 10 8 10 11 0 2 -4 4 -10 4 -5 0 -10
-5 -10 -11z"/>
<path d="M4037 1221 c-10 -14 -10 -14 4 -4 9 7 18 10 21 7 3 -3 8 -1 12 4 9
16 -24 9 -37 -7z"/>
<path d="M2306 1018 c-16 -18 -16 -22 -3 -35 10 -11 17 -12 22 -4 3 6 2 10 -3
9 -6 -2 -10 2 -11 7 -1 15 79 13 110 -1 30 -15 45 -8 25 11 -14 14 -81 35
-106 34 -8 0 -23 -10 -34 -21z"/>
</g>
</svg>
